# xmcd
# Track frame offsets:
# 150
# 13376
# 27605
# 40584
# 50114
# 61730
# 75243
# 84959
# 99329
# 113431
# 125734
# 139635
# 150306
# 161971
# 177198
#
# Disc length: 2513 seconds
# Revision: 0
# Processed by: cddbd v1.5.1PL0 Copyright (c) Steve Scherf et al.
# Submitted via: VisiTrax 2.9.10.228 - For more info visit www.synapsa.com
#
DISCID=b409cf0f
DTITLE=Various Artist - CB60330
DYEAR=1900
DGENRE=Karaoke
TTITLE0=Acuff, Roy - Wabash Cannon Ball
TTITLE1=Foley, Red - Smoke On The Water
TTITLE2=Wills, Bob and His Texas Playboys - Take Me Back To Tulsa
TTITLE3=Cline, Patsy - Walkin' After Midnight
TTITLE4=Williams, Hank - Why Dont You Love Me
TTITLE5=Autry, Gene - At Mail Call Today
TTITLE6=Whiting, Margaret - Slipping Around
TTITLE7=Travis, Merle - Divorce Me, C. O. D.
TTITLE8=Wells, Kitty - Makin' Believe
TTITLE9=Ritter, Tex - Have I Told You Lately That I Love You
TTITLE10=Cooley, Spade - Shame On You
TTITLE11=Cline, Patsy - I Fall To Pieces
TTITLE12=Cowboy Copas - Ride In My Little Red Wagon
TTITLE13=Ritter, Tex - Rye Whiskey
TTITLE14=Wakely, Jimmy - I Love You So Much It Hurts
EXTD=
EXTT0=
EXTT1=
EXTT2=
EXTT3=
EXTT4=
EXTT5=
EXTT6=
EXTT7=
EXTT8=
EXTT9=
EXTT10=
EXTT11=
EXTT12=
EXTT13=
EXTT14=
PLAYORDER=
